<svg width="187" height="46" viewBox="0 0 187 46" fill="none" xmlns="http://www.w3.org/2000/svg">
<path d="M6.30963 18.131L8.91673 28.1541C9.48635 30.345 10.0121 32.3934 10.3846 34.4309H10.5051C10.9542 32.4372 11.6005 30.3231 12.2578 28.1541L15.4783 18.131H18.4907L21.5469 27.9898C22.2809 30.3559 22.8505 32.4372 23.2996 34.4309H23.453C23.8334 32.2721 24.3344 30.1364 24.9537 28.0336L27.7689 18.1749H31.3181L24.9537 37.8924H21.6674L18.655 28.4828C17.9649 26.2919 17.3953 24.3311 16.9023 22.0088H16.8804C16.3865 24.2001 15.7684 26.3616 15.0292 28.4828L11.8525 37.8596H8.56619L2.63997 18.131H6.30963Z" fill="#47585B"/>
<path d="M52.3392 27.8365C52.3392 35.1319 47.2893 38.3087 42.4804 38.3087C37.1348 38.3087 33.016 34.398 33.016 28.1541C33.016 21.5816 37.3429 17.6819 42.7981 17.6819C48.5053 17.6819 52.3392 21.8007 52.3392 27.8365ZM36.6857 28.0336C36.6857 32.3605 39.1723 35.6139 42.6776 35.6139C46.183 35.6139 48.6696 32.3934 48.6696 27.946C48.6696 24.605 47.0045 20.3657 42.7653 20.3657C38.526 20.3657 36.6857 24.2873 36.6857 28.0336Z" fill="#47585B"/>
<path d="M56.8743 24.2873C56.8743 21.965 56.8743 19.9056 56.71 18.131H59.8538L59.9743 21.9979H60.1387C60.4782 20.7919 61.1911 19.7245 62.1752 18.949C63.1593 18.1736 64.3638 17.73 65.6157 17.6819C65.9591 17.6782 66.3015 17.7187 66.6345 17.8024V21.1873C66.2347 21.1031 65.827 21.0627 65.4186 21.0668C62.8882 21.0668 61.0917 22.9837 60.6097 25.6675C60.4957 26.234 60.4333 26.8096 60.4235 27.3873V37.9034H56.8743V24.2873Z" fill="#47585B"/>
<path d="M70.3808 8.91855H73.9628V37.8596H70.3808V8.91855Z" fill="#47585B"/>
<path d="M97.0324 8.91855V32.7658C97.0324 34.5185 97.0324 36.5122 97.1967 37.8595H93.9762L93.8228 34.4309H93.7352C93.0957 35.6544 92.1222 36.6713 90.9277 37.3636C89.7333 38.0558 88.3669 38.3949 86.9874 38.3415C82.2223 38.3415 78.5527 34.3104 78.5527 28.3184C78.5527 21.7459 82.5838 17.7148 87.3927 17.7148C88.5645 17.6388 89.7353 17.8781 90.7833 18.4079C91.8313 18.9376 92.7182 19.7385 93.3518 20.7272H93.4285V8.91855H97.0324ZM93.4504 26.1604C93.4554 25.6518 93.4003 25.1444 93.2861 24.6488C93.029 23.4637 92.371 22.4035 91.4231 21.6472C90.4752 20.8909 89.2954 20.4847 88.0828 20.4971C84.3694 20.4971 82.1676 23.7834 82.1676 28.1651C82.1676 32.1524 84.1284 35.4606 87.9952 35.4606C89.2296 35.4567 90.4253 35.0293 91.3823 34.2497C92.3394 33.4701 92.9998 32.3856 93.2532 31.1775C93.387 30.655 93.4533 30.1175 93.4504 29.5782V26.1604Z" fill="#47585B"/>
<path d="M107.318 13.3988V18.131H112.456V20.8148H107.318V31.4513C107.318 33.9051 108.02 35.2853 110.013 35.2853C110.715 35.314 111.418 35.2327 112.094 35.0443L112.259 37.7281C111.239 38.1046 110.158 38.2867 109.071 38.2649C108.352 38.3015 107.634 38.1814 106.966 37.9128C106.299 37.6442 105.697 37.2335 105.204 36.7094C104.186 35.6139 103.813 33.9051 103.813 31.5828V20.8148H100.757V18.131H103.813V14.5052L107.318 13.3988Z" fill="#FFBA08"/>
<path d="M116.498 24.2873C116.498 21.965 116.498 19.9056 116.334 18.131H119.478L119.598 21.9979H119.762C120.102 20.7919 120.815 19.7245 121.799 18.949C122.783 18.1736 123.988 17.73 125.24 17.6819C125.583 17.6782 125.925 17.7187 126.258 17.8024V21.1873C125.859 21.1031 125.451 21.0627 125.042 21.0668C122.512 21.0668 120.661 22.9837 120.233 25.6675C120.129 26.2202 120.074 26.7811 120.069 27.3435V37.8595H116.52L116.498 24.2873Z" fill="#FFBA08"/>
<path d="M133.992 12.5882C133.992 13.178 133.758 13.7436 133.341 14.1606C132.924 14.5776 132.358 14.8119 131.768 14.8119C131.178 14.8119 130.613 14.5776 130.196 14.1606C129.779 13.7436 129.545 13.178 129.545 12.5882C129.537 12.2913 129.59 11.9959 129.7 11.72C129.81 11.4442 129.975 11.1936 130.186 10.9836C130.396 10.7735 130.646 10.6084 130.922 10.4982C131.198 10.388 131.493 10.3351 131.79 10.3426C132.083 10.341 132.374 10.3984 132.645 10.5112C132.916 10.6241 133.161 10.7902 133.366 10.9996C133.572 11.209 133.733 11.4575 133.84 11.7304C133.948 12.0033 133.999 12.295 133.992 12.5882V12.5882ZM129.994 37.8596V18.142H133.587V37.8596H129.994Z" fill="#FFBA08"/>
<path d="M139.568 24.5721C139.568 22.0417 139.48 20.0042 139.403 18.1311H142.624L142.777 21.5159H142.854C143.564 20.3 144.591 19.3005 145.827 18.6249C147.062 17.9494 148.458 17.6234 149.865 17.6819C154.63 17.6819 158.223 21.7131 158.223 27.705C158.223 34.8033 153.841 38.3087 149.251 38.3087C148.058 38.3613 146.871 38.1034 145.808 37.56C144.744 37.0166 143.839 36.2064 143.183 35.2086H143.095V45.9219H139.568V24.5721ZM143.106 29.8301C143.118 30.3232 143.173 30.8143 143.27 31.298C143.571 32.4969 144.263 33.5609 145.238 34.3211C146.212 35.0812 147.413 35.4939 148.649 35.4935C152.439 35.4935 154.641 32.3934 154.641 27.8255C154.641 23.8711 152.559 20.4972 148.769 20.4972C147.503 20.533 146.285 20.9881 145.306 21.791C144.326 22.5939 143.641 23.6993 143.358 24.9336C143.207 25.4091 143.123 25.903 143.106 26.4015V29.8301Z" fill="#FFBA08"/>
<path d="M1.54454 35.2196C102.871 44.6402 162.462 18.131 162.462 18.131C162.462 18.131 120.562 47.9155 0 42.1426" fill="#F5F8FA"/>
<path d="M103.857 32.8644C140.674 27.223 160.819 18.2406 160.819 18.2406C160.819 18.2406 140.006 32.481 105.391 37.0051" stroke="#FFBA08" stroke-miterlimit="10"/>
<path d="M8.02944 35.9864C39.9868 38.5918 72.137 37.5444 103.857 32.8644" stroke="#47585B" stroke-miterlimit="10"/>
<path d="M177.316 22.4908C176.746 18.9197 176.221 15.5458 175.662 12.0296L174.764 12.7635C172.763 14.5276 170.463 15.9189 167.972 16.8713C167.58 17.0431 167.152 17.115 166.726 17.0806C166.299 17.0462 165.888 16.9065 165.529 16.6741C163.985 15.6883 162.385 14.7681 160.797 13.826C161.035 13.4782 161.368 13.2063 161.757 13.0431C162.145 12.8799 162.573 12.8323 162.988 12.9059C164.239 13.0392 165.497 13.1014 166.756 13.0921C167.151 13.0859 167.534 12.9556 167.852 12.7197C172.233 8.99524 176.615 5.2562 180.997 1.50257C182.135 0.500285 183.61 -0.0356299 185.126 0.00184023C186.485 0.00184023 187.054 0.900085 186.474 2.19268C186.153 2.84072 185.71 3.4209 185.17 3.90153C183.888 5.07363 182.552 6.18001 181.216 7.28638C181.042 7.41393 180.899 7.57832 180.797 7.76773C180.695 7.95714 180.636 8.16685 180.624 8.3818C180.339 12.0843 179.989 15.7868 179.704 19.4894C179.701 19.8643 179.607 20.233 179.43 20.5633C179.252 20.8936 178.997 21.1755 178.685 21.3844C178.21 21.7292 177.753 22.0985 177.316 22.4908V22.4908Z" fill="#47585B"/>
<path d="M165.244 6.92489C166.263 6.04855 166.975 4.90932 168.618 5.16126C170.261 5.41321 171.904 5.42416 173.635 5.54466L174.194 5.62134C172.945 6.71676 171.806 7.63691 170.656 8.58992C170.59 8.63755 170.515 8.67093 170.436 8.68791C170.357 8.70489 170.275 8.7051 170.196 8.68851C168.662 8.20653 167.128 7.71359 165.606 7.2097C165.496 7.17683 165.42 7.06729 165.244 6.92489Z" fill="#47585B"/>
</svg>
